<svg xmlns="http://www.w3.org/2000/svg" width="81.92" height="81.92" viewBox="0 0 256 256"><path id="Selection #1" fill="#000" stroke="#000" stroke-width="1" d="M69 55c.02-22.04 14.57-37.97 37-38h64c21.31.03 36.97 15.69 37 37v94c-.21 16.69-11.97 30.24-28 34 0-2.46-.29-9.73.57-11.62 1.28-2.81 5.01-3.7 9.1-8.42 5.88-6.78 7.32-14.3 7.33-22.96V61c-.01-4.87-.01-7.22-1.44-12C191 37.11 181.26 29.49 169 28.06h-38c-11.24-.06-26.09-1.62-36 3.84-9.54 5.27-12.95 12.94-15 23.1H69Zm-4 4.52L98 59h41c15.3.19 27.62 9.93 32.94 24 2.05 5.43 2.05 7.34 2.06 13v92c-.03 21.46-15.54 36.97-37 37H73c-20.68-.03-36.9-14.99-37-36V96c.03-18.98 10.9-31.62 29-36.48Zm7 10.63C54.22 73.66 47.03 84.48 47 102v82c.24 19.96 12.8 29.97 32 30h41c8.34 0 17.04.83 25-2.09 13.56-4.98 17.98-16.48 18-29.91v-70c0-12.13 1.27-24.36-8.18-33.82-5.72-5.71-13.92-8.08-21.82-8.03H72Z"/></svg>