<svg xmlns="http://www.w3.org/2000/svg" width="163.84" height="163.84" viewBox="0 0 512 512"><path id="Selection" fill="#000" stroke="#000" stroke-width="1" d="M239 23h40v37c19.18.42 45.36 9.52 63 17l19-33 34 19c-1.6 6.71-14.71 27.86-19 35 9.43 4.02 26.58 21.93 33.83 30 2.07 2.3 9.61 12.82 11.68 13.37 2.25.6 7.45-2.93 9.49-4.09L456 123l20 35-24 13.72c-2.35 1.34-7.7 3.91-8.6 6.49-.85 2.42 4.2 14.58 5.27 17.79 4.13 12.41 8.73 29.99 9.33 43h41v40h-40c-3.33 25.25-5.38 38.81-15 63 6.47 2.04 27.51 14.76 34 19l-19 34-35-18c-3.3 8.48-19.07 26.1-26.04 32.42-2.89 2.63-14.7 12.51-15.24 15.58-.39 2.21 1.51 5.12 2.56 7l9.36 16c2.01 3.93 4.72 7.29 0 10.68L372 471.98c-2.65 1.51-5.71 3.5-8.61 1.38-2.15-1.57-10.05-16.05-11.97-19.36-1.28-2.21-2.91-5.67-5.52-6.45-2.8-.84-14.5 4.91-17.9 6.25-8.25 3.24-21.22 6.62-30 8.4-2.94.6-11.54 1.7-13.4 3.54-1.95 1.91-1.59 5.72-1.6 8.26v25h-40v-33c-15.16-.14-38.43-5.39-53-10.03L176 451l-14 26c-7.38-1.39-20.15-9.68-27-13.8-2.61-1.57-7.28-3.6-6.87-7.24.24-2.14 7.57-14.13 9.15-16.96 1.07-1.92 2.92-4.63 2.28-6.91-.73-2.61-9.04-8.1-11.56-10.17-9.25-7.63-17.82-16.01-25.83-24.92-2.48-2.76-7.46-10.54-11.18-10.59-2.1-.02-6.08 2.65-7.99 3.74-5.18 2.97-11.42 7.09-17 8.85-4.53-7.54-17.51-27.65-19-35l25-13c-7.8-18.14-12.86-32.44-16.39-52-2.39-13.24-.35-15.55-8.36-15.14H30c-2.35.09-5.19.29-6.4-2.17-.88-1.8-.6-9.3-.6-11.69v-26h21c3.36-.01 7.77.56 9.4-3.15L56.6 221c2.52-12.51 8.32-33.03 14.4-44l-27-15 19-35 18 10c1.52.88 7.14 4.35 8.54 4.41 2.91.14 8.9-9.05 10.9-11.41 7.18-8.52 17.01-18.09 25.56-25.25 2.16-1.81 10.83-8.04 11.36-10.21.51-2.1-2.56-6.65-3.64-8.54-3.45-6.06-8.68-13.53-10.72-20l23-13.58 9.9-4.41 5.68 5.99L173 75l14-4.95 12-3.63L239 59V23Zm12 77.28-11 1c-8.33 1.01-21.08 3.29-29 5.74-47.62 14.73-83.84 45.82-103.57 91.98-5.94 13.89-10.34 31.99-12.37 47v8c-.62 4.1-1.2 5.44-1.02 10 1.63 42.07 18.03 83.9 48.05 113.91 4.11 4.11 11.17 9.66 15.91 13.22 20.54 15.4 39.01 23.89 64 29.52 16.74 3.77 32.97 5.11 50 3.07 70-8.43 124.13-54.81 140.87-123.72 2.31-9.52 5.46-29.51 5.09-39-2.94-75.72-51.83-139.85-126.96-156.42-10.31-2.28-29.77-5.25-40-4.3Z"/></svg>