<?xml version="1.0" encoding="UTF-8" standalone="no"?>
<!DOCTYPE svg PUBLIC "-//W3C//DTD SVG 20010904//EN"
              "http://www.w3.org/TR/2001/REC-SVG-20010904/DTD/svg10.dtd">

<svg xmlns="http://www.w3.org/2000/svg"
     width="0.853333in" height="0.853333in"
     viewBox="0 0 256 256">
  <circle id="big" cx="128" cy="128" r="120" stroke="black" stroke-width="1" fill="black"/>
  <path id="cutout1" stroke="white" stroke-width="1" fill="white" 
    d="M 51,63
      A 100,100,0,0,1,221,162 Z"/>
  <path id="cutout2" stroke="white" stroke-width="1" fill="white" 
      d="M 34,93
        A 100,100,0,0,0,204,192 Z"/>
  

  <!--<path id="Selection #1"
        fill="black" stroke="black" stroke-width="1"
        d="M 39.63,67.01
           C 44.79,59.49 50.93,52.48 58.00,46.17
             69.51,35.90 87.95,26.80 103.00,23.24
             103.00,23.24 121.00,20.42 121.00,20.42
             132.43,19.03 149.07,21.69 160.00,25.33
             204.21,40.06 234.86,78.98 235.99,126.00
             236.41,143.73 232.10,160.91 224.21,176.20
             211.50,170.00 52.00,75.50 39.63,67.01 Z
           M 209.10,198.42
           C 192.33,217.65 169.03,231.20 143.00,234.71
             128.69,236.64 115.00,236.14 101.00,232.26
             86.49,228.23 71.66,221.10 60.00,211.54
             51.18,204.31 43.55,195.54 37.34,186.00
             16.77,154.37 15.35,116.75 29.69,84.72
             39.00,91.75 194.25,186.50 209.10,198.42 Z
           M 117.00,0.42
           C 131.45,-1.34 152.17,1.16 166.00,5.67
             190.59,13.69 211.05,26.85 227.54,47.00
             267.02,95.25 265.27,168.02 223.07,214.00
             211.69,226.40 200.08,235.26 185.00,242.75
             164.67,252.86 145.51,256.26 123.00,256.00
             111.65,255.86 97.76,252.95 87.00,249.33
             15.36,225.25 -19.54,144.77 10.86,76.00
             24.62,44.87 50.12,20.46 82.00,8.42
             95.66,3.27 102.94,2.43 117.00,0.42 Z" />-->
</svg>
