<?xml version="1.0" encoding="UTF-8" standalone="no"?>
<!DOCTYPE svg PUBLIC "-//W3C//DTD SVG 20010904//EN"
              "http://www.w3.org/TR/2001/REC-SVG-20010904/DTD/svg10.dtd">

<svg xmlns="http://www.w3.org/2000/svg"
     width="0.853333in" height="0.853333in"
     viewBox="0 0 256 256">
  <path id="Selection #1"
        fill="black" stroke="black" stroke-width="1"
        d="M 69.00,55.00
           C 69.02,32.96 83.57,17.03 106.00,17.00
             106.00,17.00 170.00,17.00 170.00,17.00
             191.31,17.03 206.97,32.69 207.00,54.00
             207.00,54.00 207.00,148.00 207.00,148.00
             206.79,164.69 195.03,178.24 179.00,182.00
             179.00,179.54 178.71,172.27 179.57,170.38
             180.85,167.57 184.58,166.68 188.67,161.96
             194.55,155.18 195.99,147.66 196.00,139.00
             196.00,139.00 196.00,61.00 196.00,61.00
             195.99,56.13 195.99,53.78 194.56,49.00
             191.00,37.11 181.26,29.49 169.00,28.06
             169.00,28.06 154.00,28.06 154.00,28.06
             154.00,28.06 131.00,28.06 131.00,28.06
             119.76,28.00 104.91,26.44 95.00,31.90
             85.46,37.17 82.05,44.84 80.00,55.00
             80.00,55.00 69.00,55.00 69.00,55.00 Z
           M 65.00,59.52
           C 65.00,59.52 98.00,59.00 98.00,59.00
             98.00,59.00 125.00,59.00 125.00,59.00
             125.00,59.00 139.00,59.00 139.00,59.00
             154.30,59.19 166.62,68.93 171.94,83.00
             173.99,88.43 173.99,90.34 174.00,96.00
             174.00,96.00 174.00,188.00 174.00,188.00
             173.97,209.46 158.46,224.97 137.00,225.00
             137.00,225.00 73.00,225.00 73.00,225.00
             52.32,224.97 36.10,210.01 36.00,189.00
             36.00,189.00 36.00,96.00 36.00,96.00
             36.03,77.02 46.90,64.38 65.00,59.52 Z
           M 72.00,70.15
           C 54.22,73.66 47.03,84.48 47.00,102.00
             47.00,102.00 47.00,184.00 47.00,184.00
             47.24,203.96 59.80,213.97 79.00,214.00
             79.00,214.00 120.00,214.00 120.00,214.00
             128.34,214.00 137.04,214.83 145.00,211.91
             158.56,206.93 162.98,195.43 163.00,182.00
             163.00,182.00 163.00,112.00 163.00,112.00
             163.00,99.87 164.27,87.64 154.82,78.18
             149.10,72.47 140.90,70.10 133.00,70.15
             133.00,70.15 72.00,70.15 72.00,70.15 Z" />
</svg>
