<?xml version="1.0" encoding="UTF-8" standalone="no"?>
<!DOCTYPE svg PUBLIC "-//W3C//DTD SVG 20010904//EN"
              "http://www.w3.org/TR/2001/REC-SVG-20010904/DTD/svg10.dtd">

<svg xmlns="http://www.w3.org/2000/svg"
     width="1.70667in" height="1.70667in"
     viewBox="0 0 512 512">
  <path id="Selection"
        fill="black" stroke="black" stroke-width="1"
        d="M 239.00,23.00
           C 239.00,23.00 279.00,23.00 279.00,23.00
             279.00,23.00 279.00,60.00 279.00,60.00
             298.18,60.42 324.36,69.52 342.00,77.00
             342.00,77.00 361.00,44.00 361.00,44.00
             361.00,44.00 395.00,63.00 395.00,63.00
             393.40,69.71 380.29,90.86 376.00,98.00
             385.43,102.02 402.58,119.93 409.83,128.00
             411.90,130.30 419.44,140.82 421.51,141.37
             423.76,141.97 428.96,138.44 431.00,137.28
             431.00,137.28 456.00,123.00 456.00,123.00
             456.00,123.00 476.00,158.00 476.00,158.00
             476.00,158.00 452.00,171.72 452.00,171.72
             449.65,173.06 444.30,175.63 443.40,178.21
             442.55,180.63 447.60,192.79 448.67,196.00
             452.80,208.41 457.40,225.99 458.00,239.00
             458.00,239.00 499.00,239.00 499.00,239.00
             499.00,239.00 499.00,279.00 499.00,279.00
             499.00,279.00 459.00,279.00 459.00,279.00
             455.67,304.25 453.62,317.81 444.00,342.00
             450.47,344.04 471.51,356.76 478.00,361.00
             478.00,361.00 459.00,395.00 459.00,395.00
             459.00,395.00 424.00,377.00 424.00,377.00
             420.70,385.48 404.93,403.10 397.96,409.42
             395.07,412.05 383.26,421.93 382.72,425.00
             382.33,427.21 384.23,430.12 385.28,432.00
             385.28,432.00 394.64,448.00 394.64,448.00
             396.65,451.93 399.36,455.29 394.64,458.68
             394.64,458.68 372.00,471.98 372.00,471.98
             369.35,473.49 366.29,475.48 363.39,473.36
             361.24,471.79 353.34,457.31 351.42,454.00
             350.14,451.79 348.51,448.33 345.90,447.55
             343.10,446.71 331.40,452.46 328.00,453.80
             319.75,457.04 306.78,460.42 298.00,462.20
             295.06,462.80 286.46,463.90 284.60,465.74
             282.65,467.65 283.01,471.46 283.00,474.00
             283.00,474.00 283.00,499.00 283.00,499.00
             283.00,499.00 243.00,499.00 243.00,499.00
             243.00,499.00 243.00,466.00 243.00,466.00
             227.84,465.86 204.57,460.61 190.00,455.97
             190.00,455.97 176.00,451.00 176.00,451.00
             176.00,451.00 162.00,477.00 162.00,477.00
             154.62,475.61 141.85,467.32 135.00,463.20
             132.39,461.63 127.72,459.60 128.13,455.96
             128.37,453.82 135.70,441.83 137.28,439.00
             138.35,437.08 140.20,434.37 139.56,432.09
             138.83,429.48 130.52,423.99 128.00,421.92
             118.75,414.29 110.18,405.91 102.17,397.00
             99.69,394.24 94.71,386.46 90.99,386.41
             88.89,386.39 84.91,389.06 83.00,390.15
             77.82,393.12 71.58,397.24 66.00,399.00
             61.47,391.46 48.49,371.35 47.00,364.00
             47.00,364.00 72.00,351.00 72.00,351.00
             64.20,332.86 59.14,318.56 55.61,299.00
             53.22,285.76 55.26,283.45 47.25,283.86
             47.25,283.86 30.00,283.86 30.00,283.86
             27.65,283.95 24.81,284.15 23.60,281.69
             22.72,279.89 23.00,272.39 23.00,270.00
             23.00,270.00 23.00,244.00 23.00,244.00
             23.00,244.00 44.00,244.00 44.00,244.00
             47.36,243.99 51.77,244.56 53.40,240.85
             53.40,240.85 56.60,221.00 56.60,221.00
             59.12,208.49 64.92,187.97 71.00,177.00
             71.00,177.00 44.00,162.00 44.00,162.00
             44.00,162.00 63.00,127.00 63.00,127.00
             63.00,127.00 81.00,137.00 81.00,137.00
             82.52,137.88 88.14,141.35 89.54,141.41
             92.45,141.55 98.44,132.36 100.44,130.00
             107.62,121.48 117.45,111.91 126.00,104.75
             128.16,102.94 136.83,96.71 137.36,94.54
             137.87,92.44 134.80,87.89 133.72,86.00
             130.27,79.94 125.04,72.47 123.00,66.00
             123.00,66.00 146.00,52.42 146.00,52.42
             146.00,52.42 155.90,48.01 155.90,48.01
             155.90,48.01 161.58,54.00 161.58,54.00
             161.58,54.00 173.00,75.00 173.00,75.00
             173.00,75.00 187.00,70.05 187.00,70.05
             187.00,70.05 199.00,66.42 199.00,66.42
             199.00,66.42 239.00,59.00 239.00,59.00
             239.00,59.00 239.00,23.00 239.00,23.00 Z
           M 251.00,100.28
           C 251.00,100.28 240.00,101.28 240.00,101.28
             231.67,102.29 218.92,104.57 211.00,107.02
             163.38,121.75 127.16,152.84 107.43,199.00
             101.49,212.89 97.09,230.99 95.06,246.00
             95.06,246.00 95.06,254.00 95.06,254.00
             94.44,258.10 93.86,259.44 94.04,264.00
             95.67,306.07 112.07,347.90 142.09,377.91
             146.20,382.02 153.26,387.57 158.00,391.13
             178.54,406.53 197.01,415.02 222.00,420.65
             238.74,424.42 254.97,425.76 272.00,423.72
             342.00,415.29 396.13,368.91 412.87,300.00
             415.18,290.48 418.33,270.49 417.96,261.00
             415.02,185.28 366.13,121.15 291.00,104.58
             280.69,102.30 261.23,99.33 251.00,100.28 Z" />
</svg>
