<?xml version="1.0" encoding="UTF-8" standalone="no"?>
<svg xmlns="http://www.w3.org/2000/svg" id="face" viewBox="0 0 256 256">
    <g transform="rotate(10, 128, 128)">
        <rect x="32" y="32" width="192" height="192" rx="16" ry="16" fill="none" stroke="black" stroke-width="10"/>
        <path d="M58 16 l0 36
                 m28 -36 0 36
                 m28 -36 0 36
                 m28 -36 0 36
                 m28 -36 0 36
                 m28 -36 0 36" stroke="black" stroke-width="9"/>
        <path d="M58 16 l0 36
                 m28 -36 0 36
                 m28 -36 0 36
                 m28 -36 0 36
                 m28 -36 0 36
                 m28 -36 0 36" stroke="black" stroke-width="9" transform="rotate(90, 128, 128)"/>
        <path d="M58 16 l0 36
                 m28 -36 0 36
                 m28 -36 0 36
                 m28 -36 0 36
                 m28 -36 0 36
                 m28 -36 0 36" stroke="black" stroke-width="9" transform="rotate(180, 128, 128)"/>
        <path d="M58 16 l0 36
                 m28 -36 0 36
                 m28 -36 0 36
                 m28 -36 0 36
                 m28 -36 0 36
                 m28 -36 0 36" stroke="black" stroke-width="9" transform="rotate(270, 128, 128)"/>
    </g>
</svg>
