<?xml version="1.0" encoding="UTF-8" standalone="no"?>
<!DOCTYPE svg PUBLIC "-//W3C//DTD SVG 20010904//EN"
              "http://www.w3.org/TR/2001/REC-SVG-20010904/DTD/svg10.dtd">

<svg xmlns="http://www.w3.org/2000/svg"
     width="0.853333in" height="0.853333in"
     viewBox="0 0 256 256">
     <g transform="rotate(180, 128, 128)">
          <path d="M 58,53
                   l 80,80
                   l -80,80 Z" fill="black" transform="rotate(90,128,128) translate(72,0)"/>
          <rect x="105" width="40" y="100" height="55"/>
          <rect x="38" width="170" y="210" height="28"/>
     </g>
     <g transform="translate(0, -25)">
          <rect x="20" y="190" width="50" height="50"/>
          <rect x="37" y="180" width="16" height="70"/>
          <rect x="10" y="207" width="70" height="16"/>
     </g>
     <g transform="translate(85, 0)">
          <rect x="20" y="190" width="50" height="50"/>
          <rect x="37" y="180" width="16" height="70"/>
          <rect x="10" y="207" width="70" height="16"/>
     </g>
     <g transform="translate(170, -25)">
          <rect x="20" y="190" width="50" height="50"/>
          <rect x="37" y="180" width="16" height="70"/>
          <rect x="10" y="207" width="70" height="16"/>
     </g>
</svg>
